<mxfile host="65bd71144e">
    <diagram id="UIfDuDUdNRQKbCNEQwew" name="Architecture">
<<<<<<< HEAD
        <mxGraphModel dx="1464" dy="506" grid="1" gridSize="10" guides="1" tooltips="1" connect="1" arrows="1" fold="1" page="1" pageScale="1" pageWidth="827" pageHeight="1169" math="0" shadow="0">
            <root>
                <mxCell id="0"/>
                <mxCell id="1" parent="0"/>
                <mxCell id="8" style="edgeStyle=none;html=1;exitX=0.5;exitY=1;exitDx=0;exitDy=0;entryX=0.5;entryY=0;entryDx=0;entryDy=0;" edge="1" parent="1" source="2" target="5">
                    <mxGeometry relative="1" as="geometry"/>
                </mxCell>
                <mxCell id="2" value="Routes" style="rounded=1;whiteSpace=wrap;html=1;" vertex="1" parent="1">
                    <mxGeometry x="210" y="80" width="380" height="70" as="geometry"/>
                </mxCell>
                <mxCell id="10" style="edgeStyle=none;html=1;exitX=0.5;exitY=1;exitDx=0;exitDy=0;" edge="1" parent="1" source="3" target="4">
                    <mxGeometry relative="1" as="geometry"/>
                </mxCell>
                <mxCell id="3" value="Middlewares" style="rounded=1;whiteSpace=wrap;html=1;" vertex="1" parent="1">
                    <mxGeometry x="210" y="270" width="380" height="70" as="geometry"/>
                </mxCell>
                <mxCell id="11" style="edgeStyle=none;html=1;exitX=0.5;exitY=1;exitDx=0;exitDy=0;" edge="1" parent="1" source="4" target="7">
                    <mxGeometry relative="1" as="geometry"/>
                </mxCell>
                <mxCell id="4" value="Controllers" style="rounded=1;whiteSpace=wrap;html=1;" vertex="1" parent="1">
                    <mxGeometry x="210" y="360" width="380" height="70" as="geometry"/>
                </mxCell>
                <mxCell id="9" style="edgeStyle=none;html=1;exitX=0.5;exitY=1;exitDx=0;exitDy=0;entryX=0.5;entryY=0;entryDx=0;entryDy=0;" edge="1" parent="1" source="5" target="3">
                    <mxGeometry relative="1" as="geometry"/>
                </mxCell>
                <mxCell id="5" value="Models/Schemas" style="rounded=1;whiteSpace=wrap;html=1;" vertex="1" parent="1">
                    <mxGeometry x="210" y="180" width="380" height="70" as="geometry"/>
                </mxCell>
                <mxCell id="6" value="Repositories" style="rounded=1;whiteSpace=wrap;html=1;" vertex="1" parent="1">
                    <mxGeometry x="210" y="540" width="380" height="70" as="geometry"/>
                </mxCell>
                <mxCell id="12" style="edgeStyle=none;html=1;exitX=0.5;exitY=1;exitDx=0;exitDy=0;entryX=0.5;entryY=0;entryDx=0;entryDy=0;" edge="1" parent="1" source="7" target="6">
                    <mxGeometry relative="1" as="geometry"/>
                </mxCell>
                <mxCell id="7" value="Services" style="rounded=1;whiteSpace=wrap;html=1;" vertex="1" parent="1">
=======
        <mxGraphModel dx="732" dy="487" grid="1" gridSize="10" guides="1" tooltips="1" connect="1" arrows="1" fold="1" page="1" pageScale="1" pageWidth="827" pageHeight="1169" math="0" shadow="0">
            <root>
                <mxCell id="0"/>
                <mxCell id="1" parent="0"/>
                <mxCell id="8" style="edgeStyle=none;html=1;exitX=0.5;exitY=1;exitDx=0;exitDy=0;entryX=0.5;entryY=0;entryDx=0;entryDy=0;" parent="1" source="2" target="5" edge="1">
                    <mxGeometry relative="1" as="geometry"/>
                </mxCell>
                <mxCell id="2" value="Routes" style="rounded=1;whiteSpace=wrap;html=1;" parent="1" vertex="1">
                    <mxGeometry x="210" y="80" width="380" height="70" as="geometry"/>
                </mxCell>
                <mxCell id="10" style="edgeStyle=none;html=1;exitX=0.5;exitY=1;exitDx=0;exitDy=0;" parent="1" source="3" target="4" edge="1">
                    <mxGeometry relative="1" as="geometry"/>
                </mxCell>
                <mxCell id="3" value="Middlewares" style="rounded=1;whiteSpace=wrap;html=1;" parent="1" vertex="1">
                    <mxGeometry x="210" y="270" width="380" height="70" as="geometry"/>
                </mxCell>
                <mxCell id="11" style="edgeStyle=none;html=1;exitX=0.5;exitY=1;exitDx=0;exitDy=0;" parent="1" source="4" target="7" edge="1">
                    <mxGeometry relative="1" as="geometry"/>
                </mxCell>
                <mxCell id="4" value="Controllers" style="rounded=1;whiteSpace=wrap;html=1;" parent="1" vertex="1">
                    <mxGeometry x="210" y="360" width="380" height="70" as="geometry"/>
                </mxCell>
                <mxCell id="9" style="edgeStyle=none;html=1;exitX=0.5;exitY=1;exitDx=0;exitDy=0;entryX=0.5;entryY=0;entryDx=0;entryDy=0;" parent="1" source="5" target="3" edge="1">
                    <mxGeometry relative="1" as="geometry"/>
                </mxCell>
                <mxCell id="5" value="Models/Schemas" style="rounded=1;whiteSpace=wrap;html=1;" parent="1" vertex="1">
                    <mxGeometry x="210" y="180" width="380" height="70" as="geometry"/>
                </mxCell>
                <mxCell id="6" value="Repositories" style="rounded=1;whiteSpace=wrap;html=1;" parent="1" vertex="1">
                    <mxGeometry x="210" y="540" width="380" height="70" as="geometry"/>
                </mxCell>
                <mxCell id="12" style="edgeStyle=none;html=1;exitX=0.5;exitY=1;exitDx=0;exitDy=0;entryX=0.5;entryY=0;entryDx=0;entryDy=0;" parent="1" source="7" target="6" edge="1">
                    <mxGeometry relative="1" as="geometry"/>
                </mxCell>
                <mxCell id="7" value="Services" style="rounded=1;whiteSpace=wrap;html=1;" parent="1" vertex="1">
>>>>>>> dbfae26f0a4f68820fb338414c6092acea8d6ebc
                    <mxGeometry x="210" y="450" width="380" height="70" as="geometry"/>
                </mxCell>
            </root>
        </mxGraphModel>
    </diagram>
    <diagram id="k11rtPruKaYp8qxU3q4I" name="Database">
<<<<<<< HEAD
        <mxGraphModel dx="861" dy="573" grid="1" gridSize="10" guides="1" tooltips="1" connect="1" arrows="1" fold="1" page="1" pageScale="1" pageWidth="827" pageHeight="1169" math="0" shadow="0">
            <root>
                <mxCell id="qXegOum6WiOuh3Hq0zN8-0"/>
                <mxCell id="qXegOum6WiOuh3Hq0zN8-1" parent="qXegOum6WiOuh3Hq0zN8-0"/>
                <mxCell id="qXegOum6WiOuh3Hq0zN8-47" style="edgeStyle=none;html=1;exitX=1;exitY=0.25;exitDx=0;exitDy=0;entryX=0;entryY=0.5;entryDx=0;entryDy=0;" edge="1" parent="qXegOum6WiOuh3Hq0zN8-1" source="qXegOum6WiOuh3Hq0zN8-2" target="qXegOum6WiOuh3Hq0zN8-38">
                    <mxGeometry relative="1" as="geometry"/>
                </mxCell>
                <mxCell id="qXegOum6WiOuh3Hq0zN8-2" value="Users" style="swimlane;fontStyle=0;childLayout=stackLayout;horizontal=1;startSize=30;horizontalStack=0;resizeParent=1;resizeParentMax=0;resizeLast=0;collapsible=1;marginBottom=0;fillColor=#6666FF;" vertex="1" parent="qXegOum6WiOuh3Hq0zN8-1">
                    <mxGeometry x="160" y="10" width="140" height="210" as="geometry"/>
                </mxCell>
                <mxCell id="qXegOum6WiOuh3Hq0zN8-3" value="id" style="text;strokeColor=#000000;fillColor=#000000;align=left;verticalAlign=middle;spacingLeft=4;spacingRight=4;overflow=hidden;points=[[0,0.5],[1,0.5]];portConstraint=eastwest;rotatable=0;" vertex="1" parent="qXegOum6WiOuh3Hq0zN8-2">
                    <mxGeometry y="30" width="140" height="30" as="geometry"/>
                </mxCell>
                <mxCell id="qXegOum6WiOuh3Hq0zN8-9" value="email" style="text;strokeColor=#000000;fillColor=#000000;align=left;verticalAlign=middle;spacingLeft=4;spacingRight=4;overflow=hidden;points=[[0,0.5],[1,0.5]];portConstraint=eastwest;rotatable=0;" vertex="1" parent="qXegOum6WiOuh3Hq0zN8-2">
                    <mxGeometry y="60" width="140" height="30" as="geometry"/>
                </mxCell>
                <mxCell id="qXegOum6WiOuh3Hq0zN8-6" value="username" style="text;strokeColor=#000000;fillColor=#000000;align=left;verticalAlign=middle;spacingLeft=4;spacingRight=4;overflow=hidden;points=[[0,0.5],[1,0.5]];portConstraint=eastwest;rotatable=0;" vertex="1" parent="qXegOum6WiOuh3Hq0zN8-2">
                    <mxGeometry y="90" width="140" height="30" as="geometry"/>
                </mxCell>
                <mxCell id="qXegOum6WiOuh3Hq0zN8-7" value="password" style="text;strokeColor=#000000;fillColor=#000000;align=left;verticalAlign=middle;spacingLeft=4;spacingRight=4;overflow=hidden;points=[[0,0.5],[1,0.5]];portConstraint=eastwest;rotatable=0;" vertex="1" parent="qXegOum6WiOuh3Hq0zN8-2">
                    <mxGeometry y="120" width="140" height="30" as="geometry"/>
                </mxCell>
                <mxCell id="qXegOum6WiOuh3Hq0zN8-8" value="picture url" style="text;strokeColor=#000000;fillColor=#000000;align=left;verticalAlign=middle;spacingLeft=4;spacingRight=4;overflow=hidden;points=[[0,0.5],[1,0.5]];portConstraint=eastwest;rotatable=0;" vertex="1" parent="qXegOum6WiOuh3Hq0zN8-2">
                    <mxGeometry y="150" width="140" height="30" as="geometry"/>
                </mxCell>
                <mxCell id="qXegOum6WiOuh3Hq0zN8-16" value="created_at" style="text;strokeColor=#000000;fillColor=#000000;align=left;verticalAlign=middle;spacingLeft=4;spacingRight=4;overflow=hidden;points=[[0,0.5],[1,0.5]];portConstraint=eastwest;rotatable=0;" vertex="1" parent="qXegOum6WiOuh3Hq0zN8-2">
                    <mxGeometry y="180" width="140" height="30" as="geometry"/>
                </mxCell>
                <mxCell id="qXegOum6WiOuh3Hq0zN8-10" value="Post" style="swimlane;fontStyle=0;childLayout=stackLayout;horizontal=1;startSize=30;horizontalStack=0;resizeParent=1;resizeParentMax=0;resizeLast=0;collapsible=1;marginBottom=0;fillColor=#0066CC;" vertex="1" parent="qXegOum6WiOuh3Hq0zN8-1">
                    <mxGeometry x="500" width="140" height="210" as="geometry"/>
                </mxCell>
                <mxCell id="qXegOum6WiOuh3Hq0zN8-11" value="id" style="text;strokeColor=#000000;fillColor=#000000;align=left;verticalAlign=middle;spacingLeft=4;spacingRight=4;overflow=hidden;points=[[0,0.5],[1,0.5]];portConstraint=eastwest;rotatable=0;" vertex="1" parent="qXegOum6WiOuh3Hq0zN8-10">
                    <mxGeometry y="30" width="140" height="30" as="geometry"/>
                </mxCell>
                <mxCell id="qXegOum6WiOuh3Hq0zN8-12" value="user_id" style="text;strokeColor=#000000;fillColor=#000000;align=left;verticalAlign=middle;spacingLeft=4;spacingRight=4;overflow=hidden;points=[[0,0.5],[1,0.5]];portConstraint=eastwest;rotatable=0;" vertex="1" parent="qXegOum6WiOuh3Hq0zN8-10">
                    <mxGeometry y="60" width="140" height="30" as="geometry"/>
                </mxCell>
                <mxCell id="qXegOum6WiOuh3Hq0zN8-13" value="created_at" style="text;strokeColor=#000000;fillColor=#000000;align=left;verticalAlign=middle;spacingLeft=4;spacingRight=4;overflow=hidden;points=[[0,0.5],[1,0.5]];portConstraint=eastwest;rotatable=0;" vertex="1" parent="qXegOum6WiOuh3Hq0zN8-10">
                    <mxGeometry y="90" width="140" height="30" as="geometry"/>
                </mxCell>
                <mxCell id="qXegOum6WiOuh3Hq0zN8-14" value="updated_at" style="text;strokeColor=#000000;fillColor=#000000;align=left;verticalAlign=middle;spacingLeft=4;spacingRight=4;overflow=hidden;points=[[0,0.5],[1,0.5]];portConstraint=eastwest;rotatable=0;" vertex="1" parent="qXegOum6WiOuh3Hq0zN8-10">
                    <mxGeometry y="120" width="140" height="30" as="geometry"/>
                </mxCell>
                <mxCell id="qXegOum6WiOuh3Hq0zN8-15" value="link" style="text;strokeColor=#000000;fillColor=#000000;align=left;verticalAlign=middle;spacingLeft=4;spacingRight=4;overflow=hidden;points=[[0,0.5],[1,0.5]];portConstraint=eastwest;rotatable=0;" vertex="1" parent="qXegOum6WiOuh3Hq0zN8-10">
                    <mxGeometry y="150" width="140" height="30" as="geometry"/>
                </mxCell>
                <mxCell id="qXegOum6WiOuh3Hq0zN8-18" value="description" style="text;strokeColor=#000000;fillColor=#000000;align=left;verticalAlign=middle;spacingLeft=4;spacingRight=4;overflow=hidden;points=[[0,0.5],[1,0.5]];portConstraint=eastwest;rotatable=0;" vertex="1" parent="qXegOum6WiOuh3Hq0zN8-10">
                    <mxGeometry y="180" width="140" height="30" as="geometry"/>
                </mxCell>
                <mxCell id="qXegOum6WiOuh3Hq0zN8-20" value="Trendings" style="swimlane;fontStyle=0;childLayout=stackLayout;horizontal=1;startSize=30;horizontalStack=0;resizeParent=1;resizeParentMax=0;resizeLast=0;collapsible=1;marginBottom=0;fillColor=#FF0080;" vertex="1" parent="qXegOum6WiOuh3Hq0zN8-1">
                    <mxGeometry x="840" y="10" width="140" height="90" as="geometry"/>
                </mxCell>
                <mxCell id="qXegOum6WiOuh3Hq0zN8-21" value="id" style="text;strokeColor=#000000;fillColor=#000000;align=left;verticalAlign=middle;spacingLeft=4;spacingRight=4;overflow=hidden;points=[[0,0.5],[1,0.5]];portConstraint=eastwest;rotatable=0;" vertex="1" parent="qXegOum6WiOuh3Hq0zN8-20">
                    <mxGeometry y="30" width="140" height="30" as="geometry"/>
                </mxCell>
                <mxCell id="qXegOum6WiOuh3Hq0zN8-30" value="name" style="text;strokeColor=#000000;fillColor=#000000;align=left;verticalAlign=middle;spacingLeft=4;spacingRight=4;overflow=hidden;points=[[0,0.5],[1,0.5]];portConstraint=eastwest;rotatable=0;" vertex="1" parent="qXegOum6WiOuh3Hq0zN8-20">
                    <mxGeometry y="60" width="140" height="30" as="geometry"/>
                </mxCell>
                <mxCell id="qXegOum6WiOuh3Hq0zN8-28" value="Posts_trendings" style="swimlane;fontStyle=0;childLayout=stackLayout;horizontal=1;startSize=30;horizontalStack=0;resizeParent=1;resizeParentMax=0;resizeLast=0;collapsible=1;marginBottom=0;fillColor=#336600;" vertex="1" parent="qXegOum6WiOuh3Hq0zN8-1">
                    <mxGeometry x="670" y="110" width="140" height="120" as="geometry"/>
                </mxCell>
                <mxCell id="qXegOum6WiOuh3Hq0zN8-29" value="id" style="text;strokeColor=#000000;fillColor=#000000;align=left;verticalAlign=middle;spacingLeft=4;spacingRight=4;overflow=hidden;points=[[0,0.5],[1,0.5]];portConstraint=eastwest;rotatable=0;" vertex="1" parent="qXegOum6WiOuh3Hq0zN8-28">
                    <mxGeometry y="30" width="140" height="30" as="geometry"/>
                </mxCell>
                <mxCell id="qXegOum6WiOuh3Hq0zN8-31" value="post_id" style="text;strokeColor=#000000;fillColor=#000000;align=left;verticalAlign=middle;spacingLeft=4;spacingRight=4;overflow=hidden;points=[[0,0.5],[1,0.5]];portConstraint=eastwest;rotatable=0;" vertex="1" parent="qXegOum6WiOuh3Hq0zN8-28">
                    <mxGeometry y="60" width="140" height="30" as="geometry"/>
                </mxCell>
                <mxCell id="qXegOum6WiOuh3Hq0zN8-32" value="trending_id" style="text;strokeColor=#000000;fillColor=#000000;align=left;verticalAlign=middle;spacingLeft=4;spacingRight=4;overflow=hidden;points=[[0,0.5],[1,0.5]];portConstraint=eastwest;rotatable=0;" vertex="1" parent="qXegOum6WiOuh3Hq0zN8-28">
                    <mxGeometry y="90" width="140" height="30" as="geometry"/>
                </mxCell>
                <mxCell id="qXegOum6WiOuh3Hq0zN8-35" value="Likes" style="swimlane;fontStyle=0;childLayout=stackLayout;horizontal=1;startSize=30;horizontalStack=0;resizeParent=1;resizeParentMax=0;resizeLast=0;collapsible=1;marginBottom=0;fillColor=#CC2908;" vertex="1" parent="qXegOum6WiOuh3Hq0zN8-1">
                    <mxGeometry x="320" y="170" width="140" height="120" as="geometry"/>
                </mxCell>
                <mxCell id="qXegOum6WiOuh3Hq0zN8-36" value="id" style="text;strokeColor=#000000;fillColor=#000000;align=left;verticalAlign=middle;spacingLeft=4;spacingRight=4;overflow=hidden;points=[[0,0.5],[1,0.5]];portConstraint=eastwest;rotatable=0;" vertex="1" parent="qXegOum6WiOuh3Hq0zN8-35">
                    <mxGeometry y="30" width="140" height="30" as="geometry"/>
                </mxCell>
                <mxCell id="qXegOum6WiOuh3Hq0zN8-37" value="post_id" style="text;strokeColor=#000000;fillColor=#000000;align=left;verticalAlign=middle;spacingLeft=4;spacingRight=4;overflow=hidden;points=[[0,0.5],[1,0.5]];portConstraint=eastwest;rotatable=0;" vertex="1" parent="qXegOum6WiOuh3Hq0zN8-35">
                    <mxGeometry y="60" width="140" height="30" as="geometry"/>
                </mxCell>
                <mxCell id="qXegOum6WiOuh3Hq0zN8-38" value="user_id" style="text;strokeColor=#000000;fillColor=#000000;align=left;verticalAlign=middle;spacingLeft=4;spacingRight=4;overflow=hidden;points=[[0,0.5],[1,0.5]];portConstraint=eastwest;rotatable=0;" vertex="1" parent="qXegOum6WiOuh3Hq0zN8-35">
                    <mxGeometry y="90" width="140" height="30" as="geometry"/>
                </mxCell>
                <mxCell id="qXegOum6WiOuh3Hq0zN8-48" style="edgeStyle=none;html=1;exitX=1;exitY=0.5;exitDx=0;exitDy=0;entryX=0;entryY=0.5;entryDx=0;entryDy=0;" edge="1" parent="qXegOum6WiOuh3Hq0zN8-1" source="qXegOum6WiOuh3Hq0zN8-3" target="qXegOum6WiOuh3Hq0zN8-12">
                    <mxGeometry relative="1" as="geometry"/>
                </mxCell>
                <mxCell id="qXegOum6WiOuh3Hq0zN8-49" style="edgeStyle=none;html=1;exitX=0;exitY=0.5;exitDx=0;exitDy=0;entryX=1;entryY=0.5;entryDx=0;entryDy=0;" edge="1" parent="qXegOum6WiOuh3Hq0zN8-1" source="qXegOum6WiOuh3Hq0zN8-11" target="qXegOum6WiOuh3Hq0zN8-37">
                    <mxGeometry relative="1" as="geometry"/>
                </mxCell>
                <mxCell id="qXegOum6WiOuh3Hq0zN8-51" style="edgeStyle=none;html=1;exitX=0;exitY=0.5;exitDx=0;exitDy=0;entryX=1;entryY=0.5;entryDx=0;entryDy=0;" edge="1" parent="qXegOum6WiOuh3Hq0zN8-1" source="qXegOum6WiOuh3Hq0zN8-21" target="qXegOum6WiOuh3Hq0zN8-32">
                    <mxGeometry relative="1" as="geometry"/>
                </mxCell>
                <mxCell id="qXegOum6WiOuh3Hq0zN8-52" style="edgeStyle=none;html=1;exitX=1;exitY=0.5;exitDx=0;exitDy=0;entryX=0;entryY=0.5;entryDx=0;entryDy=0;" edge="1" parent="qXegOum6WiOuh3Hq0zN8-1" source="qXegOum6WiOuh3Hq0zN8-11" target="qXegOum6WiOuh3Hq0zN8-31">
=======
        <mxGraphModel dx="732" dy="487" grid="1" gridSize="10" guides="1" tooltips="1" connect="1" arrows="1" fold="1" page="1" pageScale="1" pageWidth="827" pageHeight="1169" math="0" shadow="0">
            <root>
                <mxCell id="qXegOum6WiOuh3Hq0zN8-0"/>
                <mxCell id="qXegOum6WiOuh3Hq0zN8-1" parent="qXegOum6WiOuh3Hq0zN8-0"/>
                <mxCell id="qXegOum6WiOuh3Hq0zN8-47" style="edgeStyle=none;html=1;exitX=1;exitY=0.25;exitDx=0;exitDy=0;entryX=0;entryY=0.5;entryDx=0;entryDy=0;" parent="qXegOum6WiOuh3Hq0zN8-1" source="qXegOum6WiOuh3Hq0zN8-2" target="qXegOum6WiOuh3Hq0zN8-38" edge="1">
                    <mxGeometry relative="1" as="geometry"/>
                </mxCell>
                <mxCell id="qXegOum6WiOuh3Hq0zN8-2" value="Users" style="swimlane;fontStyle=0;childLayout=stackLayout;horizontal=1;startSize=30;horizontalStack=0;resizeParent=1;resizeParentMax=0;resizeLast=0;collapsible=1;marginBottom=0;fillColor=#6666FF;" parent="qXegOum6WiOuh3Hq0zN8-1" vertex="1">
                    <mxGeometry x="160" y="10" width="140" height="210" as="geometry"/>
                </mxCell>
                <mxCell id="qXegOum6WiOuh3Hq0zN8-3" value="id" style="text;strokeColor=#000000;fillColor=#000000;align=left;verticalAlign=middle;spacingLeft=4;spacingRight=4;overflow=hidden;points=[[0,0.5],[1,0.5]];portConstraint=eastwest;rotatable=0;" parent="qXegOum6WiOuh3Hq0zN8-2" vertex="1">
                    <mxGeometry y="30" width="140" height="30" as="geometry"/>
                </mxCell>
                <mxCell id="qXegOum6WiOuh3Hq0zN8-9" value="email" style="text;strokeColor=#000000;fillColor=#000000;align=left;verticalAlign=middle;spacingLeft=4;spacingRight=4;overflow=hidden;points=[[0,0.5],[1,0.5]];portConstraint=eastwest;rotatable=0;" parent="qXegOum6WiOuh3Hq0zN8-2" vertex="1">
                    <mxGeometry y="60" width="140" height="30" as="geometry"/>
                </mxCell>
                <mxCell id="qXegOum6WiOuh3Hq0zN8-6" value="username" style="text;strokeColor=#000000;fillColor=#000000;align=left;verticalAlign=middle;spacingLeft=4;spacingRight=4;overflow=hidden;points=[[0,0.5],[1,0.5]];portConstraint=eastwest;rotatable=0;" parent="qXegOum6WiOuh3Hq0zN8-2" vertex="1">
                    <mxGeometry y="90" width="140" height="30" as="geometry"/>
                </mxCell>
                <mxCell id="qXegOum6WiOuh3Hq0zN8-7" value="password" style="text;strokeColor=#000000;fillColor=#000000;align=left;verticalAlign=middle;spacingLeft=4;spacingRight=4;overflow=hidden;points=[[0,0.5],[1,0.5]];portConstraint=eastwest;rotatable=0;" parent="qXegOum6WiOuh3Hq0zN8-2" vertex="1">
                    <mxGeometry y="120" width="140" height="30" as="geometry"/>
                </mxCell>
                <mxCell id="qXegOum6WiOuh3Hq0zN8-8" value="picture url" style="text;strokeColor=#000000;fillColor=#000000;align=left;verticalAlign=middle;spacingLeft=4;spacingRight=4;overflow=hidden;points=[[0,0.5],[1,0.5]];portConstraint=eastwest;rotatable=0;" parent="qXegOum6WiOuh3Hq0zN8-2" vertex="1">
                    <mxGeometry y="150" width="140" height="30" as="geometry"/>
                </mxCell>
                <mxCell id="qXegOum6WiOuh3Hq0zN8-16" value="created_at" style="text;strokeColor=#000000;fillColor=#000000;align=left;verticalAlign=middle;spacingLeft=4;spacingRight=4;overflow=hidden;points=[[0,0.5],[1,0.5]];portConstraint=eastwest;rotatable=0;" parent="qXegOum6WiOuh3Hq0zN8-2" vertex="1">
                    <mxGeometry y="180" width="140" height="30" as="geometry"/>
                </mxCell>
                <mxCell id="qXegOum6WiOuh3Hq0zN8-10" value="Post" style="swimlane;fontStyle=0;childLayout=stackLayout;horizontal=1;startSize=30;horizontalStack=0;resizeParent=1;resizeParentMax=0;resizeLast=0;collapsible=1;marginBottom=0;fillColor=#0066CC;" parent="qXegOum6WiOuh3Hq0zN8-1" vertex="1">
                    <mxGeometry x="500" width="140" height="210" as="geometry"/>
                </mxCell>
                <mxCell id="qXegOum6WiOuh3Hq0zN8-11" value="id" style="text;strokeColor=#000000;fillColor=#000000;align=left;verticalAlign=middle;spacingLeft=4;spacingRight=4;overflow=hidden;points=[[0,0.5],[1,0.5]];portConstraint=eastwest;rotatable=0;" parent="qXegOum6WiOuh3Hq0zN8-10" vertex="1">
                    <mxGeometry y="30" width="140" height="30" as="geometry"/>
                </mxCell>
                <mxCell id="qXegOum6WiOuh3Hq0zN8-12" value="user_id" style="text;strokeColor=#000000;fillColor=#000000;align=left;verticalAlign=middle;spacingLeft=4;spacingRight=4;overflow=hidden;points=[[0,0.5],[1,0.5]];portConstraint=eastwest;rotatable=0;" parent="qXegOum6WiOuh3Hq0zN8-10" vertex="1">
                    <mxGeometry y="60" width="140" height="30" as="geometry"/>
                </mxCell>
                <mxCell id="qXegOum6WiOuh3Hq0zN8-13" value="created_at" style="text;strokeColor=#000000;fillColor=#000000;align=left;verticalAlign=middle;spacingLeft=4;spacingRight=4;overflow=hidden;points=[[0,0.5],[1,0.5]];portConstraint=eastwest;rotatable=0;" parent="qXegOum6WiOuh3Hq0zN8-10" vertex="1">
                    <mxGeometry y="90" width="140" height="30" as="geometry"/>
                </mxCell>
                <mxCell id="qXegOum6WiOuh3Hq0zN8-14" value="updated_at" style="text;strokeColor=#000000;fillColor=#000000;align=left;verticalAlign=middle;spacingLeft=4;spacingRight=4;overflow=hidden;points=[[0,0.5],[1,0.5]];portConstraint=eastwest;rotatable=0;" parent="qXegOum6WiOuh3Hq0zN8-10" vertex="1">
                    <mxGeometry y="120" width="140" height="30" as="geometry"/>
                </mxCell>
                <mxCell id="qXegOum6WiOuh3Hq0zN8-15" value="link" style="text;strokeColor=#000000;fillColor=#000000;align=left;verticalAlign=middle;spacingLeft=4;spacingRight=4;overflow=hidden;points=[[0,0.5],[1,0.5]];portConstraint=eastwest;rotatable=0;" parent="qXegOum6WiOuh3Hq0zN8-10" vertex="1">
                    <mxGeometry y="150" width="140" height="30" as="geometry"/>
                </mxCell>
                <mxCell id="qXegOum6WiOuh3Hq0zN8-18" value="description" style="text;strokeColor=#000000;fillColor=#000000;align=left;verticalAlign=middle;spacingLeft=4;spacingRight=4;overflow=hidden;points=[[0,0.5],[1,0.5]];portConstraint=eastwest;rotatable=0;" parent="qXegOum6WiOuh3Hq0zN8-10" vertex="1">
                    <mxGeometry y="180" width="140" height="30" as="geometry"/>
                </mxCell>
                <mxCell id="qXegOum6WiOuh3Hq0zN8-20" value="Trendings" style="swimlane;fontStyle=0;childLayout=stackLayout;horizontal=1;startSize=30;horizontalStack=0;resizeParent=1;resizeParentMax=0;resizeLast=0;collapsible=1;marginBottom=0;fillColor=#FF0080;" parent="qXegOum6WiOuh3Hq0zN8-1" vertex="1">
                    <mxGeometry x="840" y="10" width="140" height="90" as="geometry"/>
                </mxCell>
                <mxCell id="qXegOum6WiOuh3Hq0zN8-21" value="id" style="text;strokeColor=#000000;fillColor=#000000;align=left;verticalAlign=middle;spacingLeft=4;spacingRight=4;overflow=hidden;points=[[0,0.5],[1,0.5]];portConstraint=eastwest;rotatable=0;" parent="qXegOum6WiOuh3Hq0zN8-20" vertex="1">
                    <mxGeometry y="30" width="140" height="30" as="geometry"/>
                </mxCell>
                <mxCell id="qXegOum6WiOuh3Hq0zN8-30" value="name" style="text;strokeColor=#000000;fillColor=#000000;align=left;verticalAlign=middle;spacingLeft=4;spacingRight=4;overflow=hidden;points=[[0,0.5],[1,0.5]];portConstraint=eastwest;rotatable=0;" parent="qXegOum6WiOuh3Hq0zN8-20" vertex="1">
                    <mxGeometry y="60" width="140" height="30" as="geometry"/>
                </mxCell>
                <mxCell id="qXegOum6WiOuh3Hq0zN8-28" value="Posts_trendings" style="swimlane;fontStyle=0;childLayout=stackLayout;horizontal=1;startSize=30;horizontalStack=0;resizeParent=1;resizeParentMax=0;resizeLast=0;collapsible=1;marginBottom=0;fillColor=#336600;" parent="qXegOum6WiOuh3Hq0zN8-1" vertex="1">
                    <mxGeometry x="670" y="110" width="140" height="120" as="geometry"/>
                </mxCell>
                <mxCell id="qXegOum6WiOuh3Hq0zN8-29" value="id" style="text;strokeColor=#000000;fillColor=#000000;align=left;verticalAlign=middle;spacingLeft=4;spacingRight=4;overflow=hidden;points=[[0,0.5],[1,0.5]];portConstraint=eastwest;rotatable=0;" parent="qXegOum6WiOuh3Hq0zN8-28" vertex="1">
                    <mxGeometry y="30" width="140" height="30" as="geometry"/>
                </mxCell>
                <mxCell id="qXegOum6WiOuh3Hq0zN8-31" value="post_id" style="text;strokeColor=#000000;fillColor=#000000;align=left;verticalAlign=middle;spacingLeft=4;spacingRight=4;overflow=hidden;points=[[0,0.5],[1,0.5]];portConstraint=eastwest;rotatable=0;" parent="qXegOum6WiOuh3Hq0zN8-28" vertex="1">
                    <mxGeometry y="60" width="140" height="30" as="geometry"/>
                </mxCell>
                <mxCell id="qXegOum6WiOuh3Hq0zN8-32" value="trending_id" style="text;strokeColor=#000000;fillColor=#000000;align=left;verticalAlign=middle;spacingLeft=4;spacingRight=4;overflow=hidden;points=[[0,0.5],[1,0.5]];portConstraint=eastwest;rotatable=0;" parent="qXegOum6WiOuh3Hq0zN8-28" vertex="1">
                    <mxGeometry y="90" width="140" height="30" as="geometry"/>
                </mxCell>
                <mxCell id="qXegOum6WiOuh3Hq0zN8-35" value="Likes" style="swimlane;fontStyle=0;childLayout=stackLayout;horizontal=1;startSize=30;horizontalStack=0;resizeParent=1;resizeParentMax=0;resizeLast=0;collapsible=1;marginBottom=0;fillColor=#CC2908;" parent="qXegOum6WiOuh3Hq0zN8-1" vertex="1">
                    <mxGeometry x="320" y="170" width="140" height="120" as="geometry"/>
                </mxCell>
                <mxCell id="qXegOum6WiOuh3Hq0zN8-36" value="id" style="text;strokeColor=#000000;fillColor=#000000;align=left;verticalAlign=middle;spacingLeft=4;spacingRight=4;overflow=hidden;points=[[0,0.5],[1,0.5]];portConstraint=eastwest;rotatable=0;" parent="qXegOum6WiOuh3Hq0zN8-35" vertex="1">
                    <mxGeometry y="30" width="140" height="30" as="geometry"/>
                </mxCell>
                <mxCell id="qXegOum6WiOuh3Hq0zN8-37" value="post_id" style="text;strokeColor=#000000;fillColor=#000000;align=left;verticalAlign=middle;spacingLeft=4;spacingRight=4;overflow=hidden;points=[[0,0.5],[1,0.5]];portConstraint=eastwest;rotatable=0;" parent="qXegOum6WiOuh3Hq0zN8-35" vertex="1">
                    <mxGeometry y="60" width="140" height="30" as="geometry"/>
                </mxCell>
                <mxCell id="qXegOum6WiOuh3Hq0zN8-38" value="user_id" style="text;strokeColor=#000000;fillColor=#000000;align=left;verticalAlign=middle;spacingLeft=4;spacingRight=4;overflow=hidden;points=[[0,0.5],[1,0.5]];portConstraint=eastwest;rotatable=0;" parent="qXegOum6WiOuh3Hq0zN8-35" vertex="1">
                    <mxGeometry y="90" width="140" height="30" as="geometry"/>
                </mxCell>
                <mxCell id="qXegOum6WiOuh3Hq0zN8-48" style="edgeStyle=none;html=1;exitX=1;exitY=0.5;exitDx=0;exitDy=0;entryX=0;entryY=0.5;entryDx=0;entryDy=0;" parent="qXegOum6WiOuh3Hq0zN8-1" source="qXegOum6WiOuh3Hq0zN8-3" target="qXegOum6WiOuh3Hq0zN8-12" edge="1">
                    <mxGeometry relative="1" as="geometry"/>
                </mxCell>
                <mxCell id="qXegOum6WiOuh3Hq0zN8-49" style="edgeStyle=none;html=1;exitX=0;exitY=0.5;exitDx=0;exitDy=0;entryX=1;entryY=0.5;entryDx=0;entryDy=0;" parent="qXegOum6WiOuh3Hq0zN8-1" source="qXegOum6WiOuh3Hq0zN8-11" target="qXegOum6WiOuh3Hq0zN8-37" edge="1">
                    <mxGeometry relative="1" as="geometry"/>
                </mxCell>
                <mxCell id="qXegOum6WiOuh3Hq0zN8-51" style="edgeStyle=none;html=1;exitX=0;exitY=0.5;exitDx=0;exitDy=0;entryX=1;entryY=0.5;entryDx=0;entryDy=0;" parent="qXegOum6WiOuh3Hq0zN8-1" source="qXegOum6WiOuh3Hq0zN8-21" target="qXegOum6WiOuh3Hq0zN8-32" edge="1">
                    <mxGeometry relative="1" as="geometry"/>
                </mxCell>
                <mxCell id="qXegOum6WiOuh3Hq0zN8-52" style="edgeStyle=none;html=1;exitX=1;exitY=0.5;exitDx=0;exitDy=0;entryX=0;entryY=0.5;entryDx=0;entryDy=0;" parent="qXegOum6WiOuh3Hq0zN8-1" source="qXegOum6WiOuh3Hq0zN8-11" target="qXegOum6WiOuh3Hq0zN8-31" edge="1">
                    <mxGeometry relative="1" as="geometry"/>
                </mxCell>
                <mxCell id="bqajGt9V3nLqS-NpuY2d-0" value="Sessions" style="swimlane;fontStyle=0;childLayout=stackLayout;horizontal=1;startSize=30;horizontalStack=0;resizeParent=1;resizeParentMax=0;resizeLast=0;collapsible=1;marginBottom=0;fillColor=#999900;" vertex="1" parent="qXegOum6WiOuh3Hq0zN8-1">
                    <mxGeometry y="140" width="140" height="120" as="geometry"/>
                </mxCell>
                <mxCell id="bqajGt9V3nLqS-NpuY2d-1" value="id" style="text;strokeColor=#000000;fillColor=#000000;align=left;verticalAlign=middle;spacingLeft=4;spacingRight=4;overflow=hidden;points=[[0,0.5],[1,0.5]];portConstraint=eastwest;rotatable=0;" vertex="1" parent="bqajGt9V3nLqS-NpuY2d-0">
                    <mxGeometry y="30" width="140" height="30" as="geometry"/>
                </mxCell>
                <mxCell id="bqajGt9V3nLqS-NpuY2d-2" value="token" style="text;strokeColor=#000000;fillColor=#000000;align=left;verticalAlign=middle;spacingLeft=4;spacingRight=4;overflow=hidden;points=[[0,0.5],[1,0.5]];portConstraint=eastwest;rotatable=0;" vertex="1" parent="bqajGt9V3nLqS-NpuY2d-0">
                    <mxGeometry y="60" width="140" height="30" as="geometry"/>
                </mxCell>
                <mxCell id="bqajGt9V3nLqS-NpuY2d-3" value="user_id" style="text;strokeColor=#000000;fillColor=#000000;align=left;verticalAlign=middle;spacingLeft=4;spacingRight=4;overflow=hidden;points=[[0,0.5],[1,0.5]];portConstraint=eastwest;rotatable=0;" vertex="1" parent="bqajGt9V3nLqS-NpuY2d-0">
                    <mxGeometry y="90" width="140" height="30" as="geometry"/>
                </mxCell>
                <mxCell id="bqajGt9V3nLqS-NpuY2d-6" style="edgeStyle=none;html=1;exitX=1;exitY=0.5;exitDx=0;exitDy=0;entryX=0;entryY=0.5;entryDx=0;entryDy=0;" edge="1" parent="qXegOum6WiOuh3Hq0zN8-1" source="bqajGt9V3nLqS-NpuY2d-3" target="qXegOum6WiOuh3Hq0zN8-3">
>>>>>>> dbfae26f0a4f68820fb338414c6092acea8d6ebc
                    <mxGeometry relative="1" as="geometry"/>
                </mxCell>
            </root>
        </mxGraphModel>
    </diagram>
</mxfile>